# Blender 4.4.3
# www.blender.org
o VacuumRange
v 0.002969 0.097689 -0.063869
v 0.025130 0.097689 -0.059961
v 0.044618 0.097689 -0.048710
v 0.059082 0.097689 -0.031471
v 0.066779 0.097689 -0.010326
v 0.066779 0.097689 0.012177
v 0.059082 0.097689 0.033323
v 0.044618 0.097689 0.050561
v 0.025130 0.097689 0.061813
v 0.002969 0.097689 0.065720
v -0.019192 0.097689 0.061813
v -0.038680 0.097689 0.050561
v -0.053145 0.097689 0.033323
v -0.060841 0.097689 0.012177
v -0.060841 0.097689 -0.010326
v -0.053145 0.097689 -0.031471
v -0.038680 0.097689 -0.048710
v -0.019192 0.097689 -0.059961
v 0.014049 0.097689 0.063766
v 0.250485 3.137303 -0.730395
v -0.003122 3.137303 -0.775113
v 0.473503 3.137303 -0.601636
v 0.639033 3.137303 -0.404365
v 0.727110 3.137303 -0.162376
v 0.727110 3.137303 0.095143
v 0.473503 3.137303 0.534403
v 0.639033 3.137303 0.337132
v 0.250485 3.137303 0.663163
v 0.123682 3.137303 0.685522
v -0.256729 3.137303 0.663163
v -0.003122 3.137303 0.707881
v -0.479747 3.137303 0.534403
v -0.645277 3.137303 0.337132
v -0.733353 3.137303 0.095144
v -0.733353 3.137303 -0.162376
v -0.645277 3.137303 -0.404365
v -0.479747 3.137303 -0.601636
v -0.256729 3.137303 -0.730395
vn -0.0000 -1.0000 -0.0000
vn -0.0000 1.0000 -0.0000
vn 0.1700 -0.2034 0.9642
vn 0.1692 -0.2242 -0.9597
vn -0.4873 -0.2242 -0.8440
vn -0.1700 -0.2040 0.9641
vn 0.4875 -0.2224 -0.8443
vn -0.1692 -0.2249 -0.9596
vn -0.4893 -0.2059 0.8475
vn 0.7474 -0.2195 -0.6271
vn -0.7492 -0.2088 0.6286
vn 0.9175 -0.2160 -0.3339
vn 0.9190 -0.2088 0.3345
vn -0.9183 -0.2123 0.3342
vn 0.9772 -0.2123 -0.0000
vn -0.9764 -0.2160 -0.0000
vn 0.7496 -0.2059 0.6290
vn -0.9168 -0.2195 -0.3337
vn 0.4895 -0.2040 0.8478
vn -0.7469 -0.2224 -0.6267
vt 0.000000 0.000000
s 0
f 2/1/1 3/1/1 4/1/1 5/1/1 6/1/1 7/1/1 8/1/1 9/1/1 19/1/1 10/1/1 11/1/1 12/1/1 13/1/1 14/1/1 15/1/1 16/1/1 17/1/1 18/1/1 1/1/1
f 20/1/2 21/1/2 38/1/2 37/1/2 36/1/2 35/1/2 34/1/2 33/1/2 32/1/2 30/1/2 31/1/2 29/1/2 28/1/2 26/1/2 27/1/2 25/1/2 24/1/2 23/1/2 22/1/2
f 19/1/3 9/1/3 28/1/3 29/1/3
f 2/1/4 1/1/4 21/1/4 20/1/4
f 18/1/5 17/1/5 37/1/5 38/1/5
f 11/1/6 10/1/6 31/1/6 30/1/6
f 3/1/7 2/1/7 20/1/7 22/1/7
f 1/1/8 18/1/8 38/1/8 21/1/8
f 12/1/9 11/1/9 30/1/9 32/1/9
f 4/1/10 3/1/10 22/1/10 23/1/10
f 10/1/3 19/1/3 29/1/3 31/1/3
f 13/1/11 12/1/11 32/1/11 33/1/11
f 5/1/12 4/1/12 23/1/12 24/1/12
f 7/1/13 6/1/13 25/1/13 27/1/13
f 14/1/14 13/1/14 33/1/14 34/1/14
f 6/1/15 5/1/15 24/1/15 25/1/15
f 15/1/16 14/1/16 34/1/16 35/1/16
f 8/1/17 7/1/17 27/1/17 26/1/17
f 16/1/18 15/1/18 35/1/18 36/1/18
f 9/1/19 8/1/19 26/1/19 28/1/19
f 17/1/20 16/1/20 36/1/20 37/1/20
