# Blender 4.4.3
# www.blender.org
o VacuumRange
v 0.002969 0.097689 -0.063869
v 0.025130 0.097689 -0.059961
v 0.044618 0.097689 -0.048710
v 0.059082 0.097689 -0.031471
v 0.066779 0.097689 -0.010326
v 0.066779 0.097689 0.012177
v 0.059082 0.097689 0.033323
v 0.044618 0.097689 0.050561
v 0.025130 0.097689 0.061813
v 0.002969 0.097689 0.065720
v -0.019192 0.097689 0.061813
v -0.038680 0.097689 0.050561
v -0.053145 0.097689 0.033323
v -0.060841 0.097689 0.012177
v -0.060841 0.097689 -0.010326
v -0.053145 0.097689 -0.031471
v -0.038680 0.097689 -0.048710
v -0.019192 0.097689 -0.059961
v 0.014049 0.097689 0.063766
v 0.115269 1.723551 -0.328126
v 0.000533 1.723551 -0.348357
v 0.216166 1.723551 -0.269873
v 0.291055 1.723551 -0.180624
v 0.330902 1.723551 -0.071144
v 0.330902 1.723551 0.045363
v 0.216166 1.723551 0.244092
v 0.291055 1.723551 0.154843
v 0.115269 1.723551 0.302345
v 0.057901 1.723551 0.312460
v -0.114204 1.723551 0.302345
v 0.000533 1.723551 0.322576
v -0.215101 1.723551 0.244092
v -0.289990 1.723551 0.154843
v -0.329837 1.723551 0.045363
v -0.329837 1.723551 -0.071144
v -0.289990 1.723551 -0.180624
v -0.215101 1.723551 -0.269873
v -0.114204 1.723551 -0.328126
vn -0.0000 -1.0000 -0.0000
vn -0.0000 1.0000 -0.0000
vn 0.1716 -0.1535 0.9731
vn 0.1711 -0.1696 -0.9705
vn -0.4928 -0.1696 -0.8535
vn -0.1716 -0.1540 0.9731
vn 0.4929 -0.1681 -0.8537
vn -0.1711 -0.1701 -0.9705
vn -0.4939 -0.1554 0.8555
vn 0.7554 -0.1659 -0.6339
vn -0.7565 -0.1576 0.6348
vn 0.9271 -0.1632 -0.3374
vn 0.9279 -0.1576 0.3377
vn -0.9275 -0.1603 0.3376
vn 0.9871 -0.1603 -0.0000
vn -0.9866 -0.1632 -0.0000
vn 0.7567 -0.1554 0.6350
vn -0.9267 -0.1659 -0.3373
vn 0.4940 -0.1540 0.8557
vn -0.7551 -0.1681 -0.6336
vt 0.000000 0.000000
s 0
g off
f 2/1/1 3/1/1 4/1/1 5/1/1 6/1/1 7/1/1 8/1/1 9/1/1 19/1/1 10/1/1 11/1/1 12/1/1 13/1/1 14/1/1 15/1/1 16/1/1 17/1/1 18/1/1 1/1/1
f 20/1/2 21/1/2 38/1/2 37/1/2 36/1/2 35/1/2 34/1/2 33/1/2 32/1/2 30/1/2 31/1/2 29/1/2 28/1/2 26/1/2 27/1/2 25/1/2 24/1/2 23/1/2 22/1/2
f 19/1/3 9/1/3 28/1/3 29/1/3
f 2/1/4 1/1/4 21/1/4 20/1/4
f 18/1/5 17/1/5 37/1/5 38/1/5
f 11/1/6 10/1/6 31/1/6 30/1/6
f 3/1/7 2/1/7 20/1/7 22/1/7
f 1/1/8 18/1/8 38/1/8 21/1/8
f 12/1/9 11/1/9 30/1/9 32/1/9
f 4/1/10 3/1/10 22/1/10 23/1/10
f 10/1/3 19/1/3 29/1/3 31/1/3
f 13/1/11 12/1/11 32/1/11 33/1/11
f 5/1/12 4/1/12 23/1/12 24/1/12
f 7/1/13 6/1/13 25/1/13 27/1/13
f 14/1/14 13/1/14 33/1/14 34/1/14
f 6/1/15 5/1/15 24/1/15 25/1/15
f 15/1/16 14/1/16 34/1/16 35/1/16
f 8/1/17 7/1/17 27/1/17 26/1/17
f 16/1/18 15/1/18 35/1/18 36/1/18
f 9/1/19 8/1/19 26/1/19 28/1/19
f 17/1/20 16/1/20 36/1/20 37/1/20
